<svg xmlns="http://www.w3.org/2000/svg" xmlns:xlink="http://www.w3.org/1999/xlink" xmlns:s="https://github.com/nturley/netlistsvg" width="858" height="961">
  <style>svg {
    stroke:#000;
    fill:none;
  }
  text {
    fill:#000;
    stroke:none;
    font-size:10px;
    font-weight: bold;
    font-family: "Courier New", monospace;
  }
  .nodelabel {
    text-anchor: middle;
  }
  .inputPortLabel {
    text-anchor: end;
  }
  .splitjoinBody {
    fill:#000;
  }</style>
  <g s:type="add" transform="translate(685,905.5)" s:width="25" s:height="25" id="cell_$add$uart_tx.v:44$9">
    <s:alias val="$add"/>
    <circle r="12.5" cx="12.5" cy="12.5" class="cell_$add$uart_tx.v:44$9"/>
    <line x1="7.5" x2="17.5" y1="12.5" y2="12.5" class="cell_$add$uart_tx.v:44$9"/>
    <line x1="12.5" x2="12.5" y1="7.5" y2="17.5" class="cell_$add$uart_tx.v:44$9"/>
    <g s:x="3" s:y="5" s:pid="A"/>
    <g s:x="3" s:y="20" s:pid="B"/>
    <g s:x="25" s:y="12.5" s:pid="Y"/>
  </g>
  <g s:type="and" transform="translate(368.6666666666667,610.5)" s:width="30" s:height="25" id="cell_$and$uart_tx.v:58$18">
    <s:alias val="$and"/>
    <s:alias val="$logic_and"/>
    <s:alias val="$_AND_"/>
    <path d="M0,0 L0,25 L15,25 A15 12.5 0 0 0 15,0 Z" class="cell_$and$uart_tx.v:58$18"/>
    <g s:x="0" s:y="5" s:pid="A"/>
    <g s:x="0" s:y="20" s:pid="B"/>
    <g s:x="30" s:y="12.5" s:pid="Y"/>
  </g>
  <g s:type="and" transform="translate(144,745)" s:width="30" s:height="25" id="cell_$and$uart_tx.v:59$20">
    <s:alias val="$and"/>
    <s:alias val="$logic_and"/>
    <s:alias val="$_AND_"/>
    <path d="M0,0 L0,25 L15,25 A15 12.5 0 0 0 15,0 Z" class="cell_$and$uart_tx.v:59$20"/>
    <g s:x="0" s:y="5" s:pid="A"/>
    <g s:x="0" s:y="20" s:pid="B"/>
    <g s:x="30" s:y="12.5" s:pid="Y"/>
  </g>
  <g s:type="and" transform="translate(242.66666666666666,795)" s:width="30" s:height="25" id="cell_$and$uart_tx.v:59$22">
    <s:alias val="$and"/>
    <s:alias val="$logic_and"/>
    <s:alias val="$_AND_"/>
    <path d="M0,0 L0,25 L15,25 A15 12.5 0 0 0 15,0 Z" class="cell_$and$uart_tx.v:59$22"/>
    <g s:x="0" s:y="5" s:pid="A"/>
    <g s:x="0" s:y="20" s:pid="B"/>
    <g s:x="30" s:y="12.5" s:pid="Y"/>
  </g>
  <g s:type="and" transform="translate(482,815)" s:width="30" s:height="25" id="cell_$and$uart_tx.v:59$24">
    <s:alias val="$and"/>
    <s:alias val="$logic_and"/>
    <s:alias val="$_AND_"/>
    <path d="M0,0 L0,25 L15,25 A15 12.5 0 0 0 15,0 Z" class="cell_$and$uart_tx.v:59$24"/>
    <g s:x="0" s:y="5" s:pid="A"/>
    <g s:x="0" s:y="20" s:pid="B"/>
    <g s:x="30" s:y="12.5" s:pid="Y"/>
  </g>
  <g s:type="eq" transform="translate(685,171)" s:width="25" s:height="25" id="cell_$eq$uart_tx.v:26$5">
    <s:alias val="$eq"/>
    <circle r="12.5" cx="12.5" cy="12.5" class="cell_$eq$uart_tx.v:26$5"/>
    <line x1="7.5" x2="17.5" y1="10" y2="10" class="cell_$eq$uart_tx.v:26$5"/>
    <line x1="7.5" x2="17.5" y1="15" y2="15" class="cell_$eq$uart_tx.v:26$5"/>
    <g s:x="3" s:y="5" s:pid="A"/>
    <g s:x="3" s:y="20" s:pid="B"/>
    <g s:x="25" s:y="12.5" s:pid="Y"/>
  </g>
  <g s:type="not" transform="translate(482.5,518)" s:width="30" s:height="20" id="cell_$eq$uart_tx.v:51$13">
    <s:alias val="$_NOT_"/>
    <s:alias val="$not"/>
    <s:alias val="$logic_not"/>
    <path d="M0,0 L0,20 L20,10 Z" class="cell_$eq$uart_tx.v:51$13"/>
    <circle cx="23" cy="10" r="3" class="cell_$eq$uart_tx.v:51$13"/>
    <g s:x="0" s:y="10" s:pid="A"/>
    <g s:x="25" s:y="10" s:pid="Y"/>
  </g>
  <g s:type="not" transform="translate(79,755)" s:width="30" s:height="20" id="cell_$logic_not$uart_tx.v:58$14">
    <s:alias val="$_NOT_"/>
    <s:alias val="$not"/>
    <s:alias val="$logic_not"/>
    <path d="M0,0 L0,20 L20,10 Z" class="cell_$logic_not$uart_tx.v:58$14"/>
    <circle cx="23" cy="10" r="3" class="cell_$logic_not$uart_tx.v:58$14"/>
    <g s:x="0" s:y="10" s:pid="A"/>
    <g s:x="25" s:y="10" s:pid="Y"/>
  </g>
  <g s:type="not" transform="translate(144,805)" s:width="30" s:height="20" id="cell_$logic_not$uart_tx.v:58$16">
    <s:alias val="$_NOT_"/>
    <s:alias val="$not"/>
    <s:alias val="$logic_not"/>
    <path d="M0,0 L0,20 L20,10 Z" class="cell_$logic_not$uart_tx.v:58$16"/>
    <circle cx="23" cy="10" r="3" class="cell_$logic_not$uart_tx.v:58$16"/>
    <g s:x="0" s:y="10" s:pid="A"/>
    <g s:x="25" s:y="10" s:pid="Y"/>
  </g>
  <g s:type="not" transform="translate(370.5,825)" s:width="30" s:height="20" id="cell_$logic_not$uart_tx.v:59$23">
    <s:alias val="$_NOT_"/>
    <s:alias val="$not"/>
    <s:alias val="$logic_not"/>
    <path d="M0,0 L0,20 L20,10 Z" class="cell_$logic_not$uart_tx.v:59$23"/>
    <circle cx="23" cy="10" r="3" class="cell_$logic_not$uart_tx.v:59$23"/>
    <g s:x="0" s:y="10" s:pid="A"/>
    <g s:x="25" s:y="10" s:pid="Y"/>
  </g>
  <g s:type="not" transform="translate(680,42)" s:width="30" s:height="20" id="cell_$not$uart_tx.v:27$6">
    <s:alias val="$_NOT_"/>
    <s:alias val="$not"/>
    <s:alias val="$logic_not"/>
    <path d="M0,0 L0,20 L20,10 Z" class="cell_$not$uart_tx.v:27$6"/>
    <circle cx="23" cy="10" r="3" class="cell_$not$uart_tx.v:27$6"/>
    <g s:x="0" s:y="10" s:pid="A"/>
    <g s:x="25" s:y="10" s:pid="Y"/>
  </g>
  <g s:type="or" transform="translate(680,733)" s:width="30" s:height="25" id="cell_$or$uart_tx.v:62$27">
    <s:alias val="$or"/>
    <s:alias val="$logic_or"/>
    <s:alias val="$_OR_"/>
    <path d="M0,25 L0,25 L15,25 A15 12.5 0 0 0 15,0 L0,0" class="cell_$or$uart_tx.v:62$27"/>
    <path d="M0,0 A30 25 0 0 1 0,25" class="cell_$or$uart_tx.v:62$27"/>
    <g s:x="3" s:y="5" s:pid="A"/>
    <g s:x="3" s:y="20" s:pid="B"/>
    <g s:x="30" s:y="12.5" s:pid="Y"/>
  </g>
  <g s:type="generic" transform="translate(770,360)" s:width="30" s:height="40" id="cell_$procdff$42">
    <text x="15" y="-4" class="nodelabel cell_$procdff$42" s:attribute="ref">$adff</text>
    <rect width="30" height="60" s:generic="body" class="cell_$procdff$42"/>
    <g transform="translate(0,10)" s:x="0" s:y="10" s:pid="in0" id="port_$procdff$42~ARST">
      <text x="-3" y="-4" class="inputPortLabel cell_$procdff$42">ARST</text>
    </g>
    <g transform="translate(0,30)" s:x="0" s:y="10" s:pid="in0" id="port_$procdff$42~CLK">
      <text x="-3" y="-4" class="inputPortLabel cell_$procdff$42">CLK</text>
    </g>
    <g transform="translate(0,50)" s:x="0" s:y="10" s:pid="in0" id="port_$procdff$42~D">
      <text x="-3" y="-4" class="inputPortLabel cell_$procdff$42">D</text>
    </g>
    <g transform="translate(30,10)" s:x="30" s:y="10" s:pid="out0" id="port_$procdff$42~Q">
      <text x="5" y="-4" style="fill:#000; stroke:none" class="cell_$procdff$42">Q</text>
    </g>
  </g>
  <g s:type="generic" transform="translate(365,875)" s:width="30" s:height="40" id="cell_$procdff$46">
    <text x="15" y="-4" class="nodelabel cell_$procdff$46" s:attribute="ref">$adff</text>
    <rect width="30" height="60" s:generic="body" class="cell_$procdff$46"/>
    <g transform="translate(0,10)" s:x="0" s:y="10" s:pid="in0" id="port_$procdff$46~ARST">
      <text x="-3" y="-4" class="inputPortLabel cell_$procdff$46">ARST</text>
    </g>
    <g transform="translate(0,30)" s:x="0" s:y="10" s:pid="in0" id="port_$procdff$46~CLK">
      <text x="-3" y="-4" class="inputPortLabel cell_$procdff$46">CLK</text>
    </g>
    <g transform="translate(0,50)" s:x="0" s:y="10" s:pid="in0" id="port_$procdff$46~D">
      <text x="-3" y="-4" class="inputPortLabel cell_$procdff$46">D</text>
    </g>
    <g transform="translate(30,10)" s:x="30" s:y="10" s:pid="out0" id="port_$procdff$46~Q">
      <text x="5" y="-4" style="fill:#000; stroke:none" class="cell_$procdff$46">Q</text>
    </g>
  </g>
  <g s:type="generic" transform="translate(579,635)" s:width="30" s:height="40" id="cell_$procdff$47">
    <text x="15" y="-4" class="nodelabel cell_$procdff$47" s:attribute="ref">$adff</text>
    <rect width="30" height="60" s:generic="body" class="cell_$procdff$47"/>
    <g transform="translate(0,10)" s:x="0" s:y="10" s:pid="in0" id="port_$procdff$47~ARST">
      <text x="-3" y="-4" class="inputPortLabel cell_$procdff$47">ARST</text>
    </g>
    <g transform="translate(0,30)" s:x="0" s:y="10" s:pid="in0" id="port_$procdff$47~CLK">
      <text x="-3" y="-4" class="inputPortLabel cell_$procdff$47">CLK</text>
    </g>
    <g transform="translate(0,50)" s:x="0" s:y="10" s:pid="in0" id="port_$procdff$47~D">
      <text x="-3" y="-4" class="inputPortLabel cell_$procdff$47">D</text>
    </g>
    <g transform="translate(30,10)" s:x="30" s:y="10" s:pid="out0" id="port_$procdff$47~Q">
      <text x="5" y="-4" style="fill:#000; stroke:none" class="cell_$procdff$47">Q</text>
    </g>
  </g>
  <g s:type="generic" transform="translate(579,73)" s:width="30" s:height="40" id="cell_$procdff$48">
    <text x="15" y="-4" class="nodelabel cell_$procdff$48" s:attribute="ref">$adff</text>
    <rect width="30" height="60" s:generic="body" class="cell_$procdff$48"/>
    <g transform="translate(0,10)" s:x="0" s:y="10" s:pid="in0" id="port_$procdff$48~ARST">
      <text x="-3" y="-4" class="inputPortLabel cell_$procdff$48">ARST</text>
    </g>
    <g transform="translate(0,30)" s:x="0" s:y="10" s:pid="in0" id="port_$procdff$48~CLK">
      <text x="-3" y="-4" class="inputPortLabel cell_$procdff$48">CLK</text>
    </g>
    <g transform="translate(0,50)" s:x="0" s:y="10" s:pid="in0" id="port_$procdff$48~D">
      <text x="-3" y="-4" class="inputPortLabel cell_$procdff$48">D</text>
    </g>
    <g transform="translate(30,10)" s:x="30" s:y="10" s:pid="out0" id="port_$procdff$48~Q">
      <text x="5" y="-4" style="fill:#000; stroke:none" class="cell_$procdff$48">Q</text>
    </g>
  </g>
  <g s:type="generic" transform="translate(239,207.5)" s:width="30" s:height="40" id="cell_$procdff$49">
    <text x="15" y="-4" class="nodelabel cell_$procdff$49" s:attribute="ref">$adff</text>
    <rect width="30" height="60" s:generic="body" class="cell_$procdff$49"/>
    <g transform="translate(0,10)" s:x="0" s:y="10" s:pid="in0" id="port_$procdff$49~ARST">
      <text x="-3" y="-4" class="inputPortLabel cell_$procdff$49">ARST</text>
    </g>
    <g transform="translate(0,30)" s:x="0" s:y="10" s:pid="in0" id="port_$procdff$49~CLK">
      <text x="-3" y="-4" class="inputPortLabel cell_$procdff$49">CLK</text>
    </g>
    <g transform="translate(0,50)" s:x="0" s:y="10" s:pid="in0" id="port_$procdff$49~D">
      <text x="-3" y="-4" class="inputPortLabel cell_$procdff$49">D</text>
    </g>
    <g transform="translate(30,10)" s:x="30" s:y="10" s:pid="out0" id="port_$procdff$49~Q">
      <text x="5" y="-4" style="fill:#000; stroke:none" class="cell_$procdff$49">Q</text>
    </g>
  </g>
  <g s:type="mux" transform="translate(586,400.5)" s:width="20" s:height="40" id="cell_$procmux$28">
    <s:alias val="$pmux"/>
    <s:alias val="$mux"/>
    <s:alias val="$_MUX_"/>
    <path d="M0,0 L20,10 L20,30 L0,40 Z" class="cell_$procmux$28"/>
    <g s:x="0" s:y="10" s:pid="A"/>
    <g s:x="0" s:y="30" s:pid="B"/>
    <g s:x="10" s:y="35" s:pid="S"/>
    <g s:x="20" s:y="20" s:pid="Y"/>
  </g>
  <g s:type="mux" transform="translate(770,888)" s:width="20" s:height="40" id="cell_$procmux$30">
    <s:alias val="$pmux"/>
    <s:alias val="$mux"/>
    <s:alias val="$_MUX_"/>
    <path d="M0,0 L20,10 L20,30 L0,40 Z" class="cell_$procmux$30"/>
    <g s:x="0" s:y="10" s:pid="A"/>
    <g s:x="0" s:y="30" s:pid="B"/>
    <g s:x="10" s:y="35" s:pid="S"/>
    <g s:x="20" s:y="20" s:pid="Y"/>
  </g>
  <g s:type="mux" transform="translate(770,458)" s:width="20" s:height="40" id="cell_$procmux$32">
    <s:alias val="$pmux"/>
    <s:alias val="$mux"/>
    <s:alias val="$_MUX_"/>
    <path d="M0,0 L20,10 L20,30 L0,40 Z" class="cell_$procmux$32"/>
    <g s:x="0" s:y="10" s:pid="A"/>
    <g s:x="0" s:y="30" s:pid="B"/>
    <g s:x="10" s:y="35" s:pid="S"/>
    <g s:x="20" s:y="20" s:pid="Y"/>
  </g>
  <g s:type="mux" transform="translate(483.3333333333333,573)" s:width="20" s:height="40" id="cell_$procmux$34">
    <s:alias val="$pmux"/>
    <s:alias val="$mux"/>
    <s:alias val="$_MUX_"/>
    <path d="M0,0 L20,10 L20,30 L0,40 Z" class="cell_$procmux$34"/>
    <g s:x="0" s:y="10" s:pid="A"/>
    <g s:x="0" s:y="30" s:pid="B"/>
    <g s:x="10" s:y="35" s:pid="S"/>
    <g s:x="20" s:y="20" s:pid="Y"/>
  </g>
  <g s:type="mux" transform="translate(770,221)" s:width="20" s:height="40" id="cell_$procmux$37">
    <s:alias val="$pmux"/>
    <s:alias val="$mux"/>
    <s:alias val="$_MUX_"/>
    <path d="M0,0 L20,10 L20,30 L0,40 Z" class="cell_$procmux$37"/>
    <g s:x="0" s:y="10" s:pid="A"/>
    <g s:x="0" s:y="30" s:pid="B"/>
    <g s:x="10" s:y="35" s:pid="S"/>
    <g s:x="20" s:y="20" s:pid="Y"/>
  </g>
  <g s:type="mux" transform="translate(770,22)" s:width="20" s:height="40" id="cell_$procmux$40">
    <s:alias val="$pmux"/>
    <s:alias val="$mux"/>
    <s:alias val="$_MUX_"/>
    <path d="M0,0 L20,10 L20,30 L0,40 Z" class="cell_$procmux$40"/>
    <g s:x="0" s:y="10" s:pid="A"/>
    <g s:x="0" s:y="30" s:pid="B"/>
    <g s:x="10" s:y="35" s:pid="S"/>
    <g s:x="20" s:y="20" s:pid="Y"/>
  </g>
  <g s:type="reduce_xor" transform="translate(481,750.5)" s:width="33" s:height="25" id="cell_$reduce_xor$uart_tx.v:60$25">
    <s:alias val="$xor"/>
    <s:alias val="$reduce_xor"/>
    <s:alias val="$_XOR_"/>
    <path d="M3,0 A30 25 0 0 1 3,25 A30 25 0 0 0 33,12.5 A30 25 0 0 0 3,0" class="cell_$reduce_xor$uart_tx.v:60$25"/>
    <path d="M0,0 A30 25 0 0 1 0,25" class="cell_$reduce_xor$uart_tx.v:60$25"/>
    <g s:x="3" s:y="5" s:pid="A"/>
    <g s:x="3" s:y="20" s:pid="B"/>
    <g s:x="33" s:y="12.5" s:pid="Y"/>
  </g>
  <g s:type="mux" transform="translate(586,733)" s:width="20" s:height="40" id="cell_$ternary$uart_tx.v:62$26">
    <s:alias val="$pmux"/>
    <s:alias val="$mux"/>
    <s:alias val="$_MUX_"/>
    <path d="M0,0 L20,10 L20,30 L0,40 Z" class="cell_$ternary$uart_tx.v:62$26"/>
    <g s:x="0" s:y="10" s:pid="A"/>
    <g s:x="0" s:y="30" s:pid="B"/>
    <g s:x="10" s:y="35" s:pid="S"/>
    <g s:x="20" s:y="20" s:pid="Y"/>
  </g>
  <g s:type="inputExt" transform="translate(144,228)" s:width="30" s:height="20" id="cell_clk">
    <text x="15" y="-4" class="nodelabel cell_clk" s:attribute="ref">clk</text>
    <s:alias val="$_inputExt_"/>
    <path d="M0,0 L0,20 L15,20 L30,10 L15,0 Z" class="cell_clk"/>
    <g s:x="28" s:y="10" s:pid="Y"/>
  </g>
  <g s:type="inputExt" transform="translate(144,293)" s:width="30" s:height="20" id="cell_reset">
    <text x="15" y="-4" class="nodelabel cell_reset" s:attribute="ref">reset</text>
    <s:alias val="$_inputExt_"/>
    <path d="M0,0 L0,20 L15,20 L30,10 L15,0 Z" class="cell_reset"/>
    <g s:x="28" s:y="10" s:pid="Y"/>
  </g>
  <g s:type="inputExt" transform="translate(680,803)" s:width="30" s:height="20" id="cell_en">
    <text x="15" y="-4" class="nodelabel cell_en" s:attribute="ref">en</text>
    <s:alias val="$_inputExt_"/>
    <path d="M0,0 L0,20 L15,20 L30,10 L15,0 Z" class="cell_en"/>
    <g s:x="28" s:y="10" s:pid="Y"/>
  </g>
  <g s:type="inputExt" transform="translate(365,488)" s:width="30" s:height="20" id="cell_data">
    <text x="15" y="-4" class="nodelabel cell_data" s:attribute="ref">data</text>
    <s:alias val="$_inputExt_"/>
    <path d="M0,0 L0,20 L15,20 L30,10 L15,0 Z" class="cell_data"/>
    <g s:x="28" s:y="10" s:pid="Y"/>
  </g>
  <g s:type="outputExt" transform="translate(770,833)" s:width="30" s:height="20" id="cell_data_tx">
    <text x="15" y="-4" class="nodelabel cell_data_tx" s:attribute="ref">data_tx</text>
    <s:alias val="$_outputExt_"/>
    <path d="M30,0 L30,20 L15,20 L0,10 L15,0 Z" class="cell_data_tx"/>
    <g s:x="0" s:y="10" s:pid="A"/>
  </g>
  <g s:type="constant" transform="translate(365,777.5)" s:width="30" s:height="20" id="cell_1">
    <text x="15" y="-4" class="nodelabel cell_1" s:attribute="ref">1</text>
    <s:alias val="$_constant_"/>
    <rect width="30" height="20" class="cell_1"/>
    <g s:x="30" s:y="10" s:pid="Y"/>
  </g>
  <g s:type="constant" transform="translate(579,181)" s:width="30" s:height="20" id="cell_101">
    <text x="15" y="-4" class="nodelabel cell_101" s:attribute="ref">101</text>
    <s:alias val="$_constant_"/>
    <rect width="30" height="20" class="cell_101"/>
    <g s:x="30" s:y="10" s:pid="Y"/>
  </g>
  <g s:type="constant" transform="translate(680,478)" s:width="30" s:height="20" id="cell_0">
    <text x="15" y="-4" class="nodelabel cell_0" s:attribute="ref">0</text>
    <s:alias val="$_constant_"/>
    <rect width="30" height="20" class="cell_0"/>
    <g s:x="30" s:y="10" s:pid="Y"/>
  </g>
  <g s:type="constant" transform="translate(680,241)" s:width="30" s:height="20" id="cell_00000000">
    <text x="15" y="-4" class="nodelabel cell_00000000" s:attribute="ref">0x0</text>
    <s:alias val="$_constant_"/>
    <rect width="30" height="20" class="cell_00000000"/>
    <g s:x="30" s:y="10" s:pid="Y"/>
  </g>
  <g s:type="join" transform="translate(699,390)" s:width="4" s:height="40" id="cell_$join$,43,44,45,46,47,48,49,50,">
    <rect width="5" height="40" class="splitjoinBody" s:generic="body"/>
    <s:alias val="$_join_"/>
    <g s:x="5" s:y="20" s:pid="out"/>
    <g transform="translate(0,10)" s:x="0" s:y="10" s:pid="in0">
      <text x="-3" y="-4" class="inputPortLabel">0:6</text>
    </g>
    <g transform="translate(0,30)" s:x="0" s:y="10" s:pid="in0">
      <text x="-3" y="-4" class="inputPortLabel">7</text>
    </g>
  </g>
  <g s:type="split" transform="translate(32,714.5)" s:width="5" s:height="40" id="cell_$split$,14,15,16,17,">
    <rect width="5" height="80" class="splitjoinBody" s:generic="body"/>
    <s:alias val="$_split_"/>
    <g s:x="0" s:y="20" s:pid="in"/>
    <g transform="translate(4,10)" s:x="4" s:y="10" s:pid="out0">
      <text x="5" y="-4">0</text>
    </g>
    <g transform="translate(4,30)" s:x="4" s:y="10" s:pid="out0">
      <text x="5" y="-4">3</text>
    </g>
    <g transform="translate(4,50)" s:x="4" s:y="10" s:pid="out0">
      <text x="5" y="-4">2</text>
    </g>
    <g transform="translate(4,70)" s:x="4" s:y="10" s:pid="out0">
      <text x="5" y="-4">1</text>
    </g>
  </g>
  <g s:type="split" transform="translate(490,325)" s:width="5" s:height="40" id="cell_$split$,51,43,44,45,46,47,48,49,">
    <rect width="5" height="60" class="splitjoinBody" s:generic="body"/>
    <s:alias val="$_split_"/>
    <g s:x="0" s:y="20" s:pid="in"/>
    <g transform="translate(4,10)" s:x="4" s:y="10" s:pid="out0">
      <text x="5" y="-4">1:7</text>
    </g>
    <g transform="translate(4,30)" s:x="4" s:y="10" s:pid="out0">
      <text x="5" y="-4">7</text>
    </g>
    <g transform="translate(4,50)" s:x="4" s:y="10" s:pid="out0">
      <text x="5" y="-4">0</text>
    </g>
  </g>
  <g s:type="split" transform="translate(490,420)" s:width="5" s:height="40" id="cell_$split$,5,6,7,8,9,10,11,12,">
    <rect width="5" height="20" class="splitjoinBody" s:generic="body"/>
    <s:alias val="$_split_"/>
    <g s:x="0" s:y="20" s:pid="in"/>
    <g transform="translate(4,10)" s:x="4" s:y="10" s:pid="out0">
      <text x="5" y="-4">7</text>
    </g>
  </g>
  <line x1="396" x2="655" y1="885.5" y2="885.5" class="net_14,15,16,17"/>
  <line x1="655" x2="655" y1="885.5" y2="910.5" class="net_14,15,16,17"/>
  <circle cx="655" cy="885.5" r="2" style="fill:#000" class="net_14,15,16,17"/>
  <line x1="655" x2="688" y1="910.5" y2="910.5" class="net_14,15,16,17"/>
  <line x1="396" x2="451" y1="885.5" y2="885.5" class="net_14,15,16,17"/>
  <line x1="451" x2="451" y1="885.5" y2="528" class="net_14,15,16,17"/>
  <line x1="451" x2="482.5" y1="528" y2="528" class="net_14,15,16,17"/>
  <line x1="396" x2="730" y1="885.5" y2="885.5" class="net_14,15,16,17"/>
  <line x1="730" x2="730" y1="885.5" y2="898" class="net_14,15,16,17"/>
  <line x1="730" x2="770" y1="898" y2="898" class="net_14,15,16,17"/>
  <line x1="396" x2="451" y1="885.5" y2="885.5" class="net_14,15,16,17"/>
  <line x1="451" x2="451" y1="885.5" y2="855" class="net_14,15,16,17"/>
  <line x1="451" x2="12" y1="855" y2="855" class="net_14,15,16,17"/>
  <line x1="12" x2="12" y1="855" y2="735" class="net_14,15,16,17"/>
  <circle cx="451" cy="855" r="2" style="fill:#000" class="net_14,15,16,17"/>
  <circle cx="451" cy="885.5" r="2" style="fill:#000" class="net_14,15,16,17"/>
  <line x1="12" x2="32" y1="735" y2="735" class="net_14,15,16,17"/>
  <line x1="395" x2="471" y1="787.5" y2="787.5" class="net_68"/>
  <line x1="471" x2="471" y1="787.5" y2="925.5" class="net_68"/>
  <circle cx="471" cy="787.5" r="2" style="fill:#000" class="net_68"/>
  <line x1="471" x2="688" y1="925.5" y2="925.5" class="net_68"/>
  <line x1="395" x2="471" y1="787.5" y2="787.5" class="net_68"/>
  <line x1="471" x2="471" y1="787.5" y2="603" class="net_68"/>
  <line x1="471" x2="483.3333333333333" y1="603" y2="603" class="net_68"/>
  <line x1="272.66666666666663" x2="325" y1="807.5" y2="807.5" class="net_22"/>
  <line x1="325" x2="325" y1="807.5" y2="615.5" class="net_22"/>
  <circle cx="325" cy="807.5" r="2" style="fill:#000" class="net_22"/>
  <line x1="325" x2="368.6666666666667" y1="615.5" y2="615.5" class="net_22"/>
  <line x1="272.66666666666663" x2="461" y1="807.5" y2="807.5" class="net_22"/>
  <line x1="461" x2="461" y1="807.5" y2="820" class="net_22"/>
  <line x1="461" x2="482" y1="820" y2="820" class="net_22"/>
  <line x1="37" x2="64" y1="725" y2="725" class="net_14"/>
  <line x1="64" x2="64" y1="725" y2="630.5" class="net_14"/>
  <circle cx="64" cy="725" r="2" style="fill:#000" class="net_14"/>
  <line x1="64" x2="368.6666666666667" y1="630.5" y2="630.5" class="net_14"/>
  <line x1="37" x2="64" y1="725" y2="725" class="net_14"/>
  <line x1="64" x2="64" y1="725" y2="835" class="net_14"/>
  <line x1="64" x2="370.5" y1="835" y2="835" class="net_14"/>
  <line x1="37" x2="54" y1="745" y2="745" class="net_17"/>
  <line x1="54" x2="54" y1="745" y2="744" class="net_17"/>
  <line x1="54" x2="119" y1="744" y2="744" class="net_17"/>
  <line x1="119" x2="119" y1="744" y2="750" class="net_17"/>
  <line x1="119" x2="144" y1="750" y2="750" class="net_17"/>
  <line x1="104" x2="144" y1="765" y2="765" class="net_24"/>
  <line x1="174" x2="184" y1="757.5" y2="757.5" class="net_25"/>
  <line x1="184" x2="184" y1="757.5" y2="800" class="net_25"/>
  <line x1="184" x2="242.66666666666666" y1="800" y2="800" class="net_25"/>
  <line x1="169" x2="242.66666666666666" y1="815" y2="815" class="net_26"/>
  <line x1="395.5" x2="482" y1="835" y2="835" class="net_27"/>
  <line x1="610" x2="655" y1="83.5" y2="83.5" class="net_29,30,31,32,33,34,35,36"/>
  <line x1="655" x2="655" y1="83.5" y2="176" class="net_29,30,31,32,33,34,35,36"/>
  <circle cx="655" cy="83.5" r="2" style="fill:#000" class="net_29,30,31,32,33,34,35,36"/>
  <line x1="655" x2="688" y1="176" y2="176" class="net_29,30,31,32,33,34,35,36"/>
  <line x1="610" x2="730" y1="83.5" y2="83.5" class="net_29,30,31,32,33,34,35,36"/>
  <line x1="730" x2="730" y1="83.5" y2="231" class="net_29,30,31,32,33,34,35,36"/>
  <line x1="730" x2="770" y1="231" y2="231" class="net_29,30,31,32,33,34,35,36"/>
  <line x1="609" x2="688" y1="191" y2="191" class="net_69,70,71"/>
  <line x1="37" x2="79" y1="765" y2="765" class="net_16"/>
  <line x1="37" x2="54" y1="785" y2="785" class="net_15"/>
  <line x1="54" x2="54" y1="785" y2="815" class="net_15"/>
  <line x1="54" x2="144" y1="815" y2="815" class="net_15"/>
  <line x1="270" x2="315" y1="218" y2="218" class="net_39"/>
  <line x1="315" x2="315" y1="218" y2="52" class="net_39"/>
  <circle cx="315" cy="218" r="2" style="fill:#000" class="net_39"/>
  <line x1="315" x2="680" y1="52" y2="52" class="net_39"/>
  <line x1="270" x2="315" y1="218" y2="218" class="net_39"/>
  <line x1="315" x2="315" y1="218" y2="314" class="net_39"/>
  <line x1="315" x2="720" y1="314" y2="314" class="net_39"/>
  <line x1="720" x2="720" y1="314" y2="390.5" class="net_39"/>
  <circle cx="315" cy="314" r="2" style="fill:#000" class="net_39"/>
  <line x1="720" x2="770" y1="390.5" y2="390.5" class="net_39"/>
  <line x1="270" x2="315" y1="218" y2="218" class="net_39"/>
  <line x1="315" x2="315" y1="218" y2="905.5" class="net_39"/>
  <line x1="315" x2="365" y1="905.5" y2="905.5" class="net_39"/>
  <line x1="270" x2="315" y1="218" y2="218" class="net_39"/>
  <line x1="315" x2="315" y1="218" y2="52" class="net_39"/>
  <line x1="315" x2="655" y1="52" y2="52" class="net_39"/>
  <line x1="655" x2="655" y1="52" y2="31" class="net_39"/>
  <line x1="655" x2="720" y1="31" y2="31" class="net_39"/>
  <line x1="720" x2="720" y1="31" y2="32" class="net_39"/>
  <circle cx="655" cy="52" r="2" style="fill:#000" class="net_39"/>
  <line x1="720" x2="770" y1="32" y2="32" class="net_39"/>
  <line x1="610" x2="655" y1="645.5" y2="645.5" class="net_41"/>
  <line x1="655" x2="655" y1="645.5" y2="738" class="net_41"/>
  <circle cx="655" cy="645.5" r="2" style="fill:#000" class="net_41"/>
  <line x1="655" x2="683" y1="738" y2="738" class="net_41"/>
  <line x1="610" x2="655" y1="645.5" y2="645.5" class="net_41"/>
  <line x1="655" x2="655" y1="645.5" y2="457" class="net_41"/>
  <line x1="655" x2="720" y1="457" y2="457" class="net_41"/>
  <line x1="720" x2="720" y1="457" y2="468" class="net_41"/>
  <line x1="720" x2="770" y1="468" y2="468" class="net_41"/>
  <line x1="606" x2="683" y1="753" y2="753" class="net_42"/>
  <line x1="172" x2="730" y1="303" y2="303" class="net_3"/>
  <line x1="730" x2="730" y1="303" y2="370.5" class="net_3"/>
  <line x1="730" x2="770" y1="370.5" y2="370.5" class="net_3"/>
  <line x1="172" x2="194" y1="303" y2="303" class="net_3"/>
  <line x1="194" x2="194" y1="303" y2="885.5" class="net_3"/>
  <circle cx="194" cy="303" r="2" style="fill:#000" class="net_3"/>
  <line x1="194" x2="365" y1="885.5" y2="885.5" class="net_3"/>
  <line x1="172" x2="194" y1="303" y2="303" class="net_3"/>
  <line x1="194" x2="194" y1="303" y2="645.5" class="net_3"/>
  <circle cx="194" cy="645.5" r="2" style="fill:#000" class="net_3"/>
  <line x1="194" x2="579" y1="645.5" y2="645.5" class="net_3"/>
  <line x1="172" x2="194" y1="303" y2="303" class="net_3"/>
  <line x1="194" x2="194" y1="303" y2="83.5" class="net_3"/>
  <line x1="194" x2="579" y1="83.5" y2="83.5" class="net_3"/>
  <line x1="172" x2="194" y1="303" y2="303" class="net_3"/>
  <line x1="194" x2="194" y1="303" y2="218" class="net_3"/>
  <circle cx="194" cy="218" r="2" style="fill:#000" class="net_3"/>
  <line x1="194" x2="239" y1="218" y2="218" class="net_3"/>
  <line x1="705" x2="770" y1="410.5" y2="410.5" class="net_43,44,45,46,47,48,49,50"/>
  <line x1="790" x2="846" y1="908" y2="908" class="net_52,53,54,55"/>
  <line x1="846" x2="846" y1="908" y2="948" class="net_52,53,54,55"/>
  <line x1="846" x2="325" y1="948" y2="948" class="net_52,53,54,55"/>
  <line x1="325" x2="325" y1="948" y2="925.5" class="net_52,53,54,55"/>
  <line x1="325" x2="365" y1="925.5" y2="925.5" class="net_52,53,54,55"/>
  <line x1="172" x2="204" y1="238" y2="238" class="net_2"/>
  <line x1="204" x2="204" y1="238" y2="665.5" class="net_2"/>
  <circle cx="204" cy="238" r="2" style="fill:#000" class="net_2"/>
  <line x1="204" x2="579" y1="665.5" y2="665.5" class="net_2"/>
  <line x1="172" x2="204" y1="238" y2="238" class="net_2"/>
  <line x1="204" x2="204" y1="238" y2="103.5" class="net_2"/>
  <line x1="204" x2="579" y1="103.5" y2="103.5" class="net_2"/>
  <line x1="172" x2="239" y1="238" y2="238" class="net_2"/>
  <line x1="503.3333333333333" x2="534" y1="593" y2="593" class="net_56"/>
  <line x1="534" x2="534" y1="593" y2="685.5" class="net_56"/>
  <line x1="534" x2="579" y1="685.5" y2="685.5" class="net_56"/>
  <line x1="790" x2="846" y1="241" y2="241" class="net_57,58,59,60,61,62,63,64"/>
  <line x1="846" x2="846" y1="241" y2="281" class="net_57,58,59,60,61,62,63,64"/>
  <line x1="846" x2="544" y1="281" y2="281" class="net_57,58,59,60,61,62,63,64"/>
  <line x1="544" x2="544" y1="281" y2="123.5" class="net_57,58,59,60,61,62,63,64"/>
  <line x1="544" x2="579" y1="123.5" y2="123.5" class="net_57,58,59,60,61,62,63,64"/>
  <line x1="790" x2="846" y1="42" y2="42" class="net_65"/>
  <line x1="846" x2="846" y1="42" y2="12" class="net_65"/>
  <line x1="846" x2="184" y1="12" y2="12" class="net_65"/>
  <line x1="184" x2="184" y1="12" y2="258" class="net_65"/>
  <line x1="184" x2="239" y1="258" y2="258" class="net_65"/>
  <line x1="495" x2="534" y1="355.5" y2="355.5" class="net_49"/>
  <line x1="534" x2="534" y1="355.5" y2="410.5" class="net_49"/>
  <line x1="534" x2="586" y1="410.5" y2="410.5" class="net_49"/>
  <line x1="495" x2="586" y1="430.5" y2="430.5" class="net_12"/>
  <line x1="507.5" x2="596" y1="528" y2="528" class="net_38"/>
  <line x1="596" x2="596" y1="528" y2="435.5" class="net_38"/>
  <line x1="710" x2="770" y1="918" y2="918" class="net_18,19,20,21"/>
  <line x1="708" x2="720" y1="813" y2="813" class="net_4"/>
  <line x1="720" x2="720" y1="813" y2="938" class="net_4"/>
  <line x1="720" x2="780" y1="938" y2="938" class="net_4"/>
  <circle cx="720" cy="813" r="2" style="fill:#000" class="net_4"/>
  <line x1="780" x2="780" y1="938" y2="923" class="net_4"/>
  <line x1="708" x2="780" y1="813" y2="813" class="net_4"/>
  <line x1="780" x2="780" y1="813" y2="493" class="net_4"/>
  <line x1="710" x2="770" y1="488" y2="488" class="net_72"/>
  <line x1="790" x2="846" y1="478" y2="478" class="net_66"/>
  <line x1="846" x2="846" y1="478" y2="508" class="net_66"/>
  <line x1="846" x2="471" y1="508" y2="508" class="net_66"/>
  <line x1="471" x2="471" y1="508" y2="583" class="net_66"/>
  <line x1="471" x2="483.3333333333333" y1="583" y2="583" class="net_66"/>
  <line x1="398.6666666666667" x2="493.3333333333333" y1="623" y2="623" class="net_23"/>
  <line x1="493.3333333333333" x2="493.3333333333333" y1="623" y2="608" class="net_23"/>
  <line x1="710" x2="770" y1="251" y2="251" class="net_74,75,76,77,78,79,80,81"/>
  <line x1="710" x2="720" y1="183.5" y2="183.5" class="net_37"/>
  <line x1="720" x2="720" y1="183.5" y2="271" class="net_37"/>
  <line x1="720" x2="780" y1="271" y2="271" class="net_37"/>
  <circle cx="720" cy="183.5" r="2" style="fill:#000" class="net_37"/>
  <line x1="780" x2="780" y1="271" y2="256" class="net_37"/>
  <line x1="710" x2="780" y1="183.5" y2="183.5" class="net_37"/>
  <line x1="780" x2="780" y1="183.5" y2="57" class="net_37"/>
  <line x1="705" x2="770" y1="52" y2="52" class="net_40"/>
  <line x1="393" x2="441" y1="498" y2="498" class="net_5,6,7,8,9,10,11,12"/>
  <line x1="441" x2="441" y1="498" y2="755.5" class="net_5,6,7,8,9,10,11,12"/>
  <circle cx="441" cy="498" r="2" style="fill:#000" class="net_5,6,7,8,9,10,11,12"/>
  <line x1="441" x2="484" y1="755.5" y2="755.5" class="net_5,6,7,8,9,10,11,12"/>
  <line x1="393" x2="490.5" y1="498" y2="498" class="net_5,6,7,8,9,10,11,12"/>
  <line x1="490.5" x2="490.5" y1="498" y2="441" class="net_5,6,7,8,9,10,11,12"/>
  <line x1="495" x2="524" y1="375.5" y2="375.5" class="net_51"/>
  <line x1="524" x2="524" y1="375.5" y2="743" class="net_51"/>
  <line x1="524" x2="586" y1="743" y2="743" class="net_51"/>
  <line x1="514" x2="586" y1="763" y2="763" class="net_67"/>
  <line x1="512" x2="596" y1="827.5" y2="827.5" class="net_28"/>
  <line x1="596" x2="596" y1="827.5" y2="768" class="net_28"/>
  <line x1="710" x2="730" y1="745.5" y2="745.5" class="net_13"/>
  <line x1="730" x2="730" y1="745.5" y2="843" class="net_13"/>
  <line x1="730" x2="770" y1="843" y2="843" class="net_13"/>
  <line x1="495" x2="544" y1="335.5" y2="335.5" class="net_43,44,45,46,47,48,49"/>
  <line x1="544" x2="544" y1="335.5" y2="389.5" class="net_43,44,45,46,47,48,49"/>
  <line x1="544" x2="655" y1="389.5" y2="389.5" class="net_43,44,45,46,47,48,49"/>
  <line x1="655" x2="655" y1="389.5" y2="400.5" class="net_43,44,45,46,47,48,49"/>
  <line x1="655" x2="699" y1="400.5" y2="400.5" class="net_43,44,45,46,47,48,49"/>
  <line x1="606" x2="699" y1="420.5" y2="420.5" class="net_50"/>
  <line x1="801" x2="846" y1="370.5" y2="370.5" class="net_51,43,44,45,46,47,48,49"/>
  <line x1="846" x2="846" y1="370.5" y2="292" class="net_51,43,44,45,46,47,48,49"/>
  <line x1="846" x2="471" y1="292" y2="292" class="net_51,43,44,45,46,47,48,49"/>
  <line x1="471" x2="471" y1="292" y2="345.5" class="net_51,43,44,45,46,47,48,49"/>
  <line x1="471" x2="490" y1="345.5" y2="345.5" class="net_51,43,44,45,46,47,48,49"/>
</svg>
