<svg xmlns="http://www.w3.org/2000/svg" xmlns:xlink="http://www.w3.org/1999/xlink" xmlns:s="https://github.com/nturley/netlistsvg" width="1002" height="921">
  <style>svg {
    stroke:#000;
    fill:none;
  }
  text {
    fill:#000;
    stroke:none;
    font-size:10px;
    font-weight: bold;
    font-family: "Courier New", monospace;
  }
  .nodelabel {
    text-anchor: middle;
  }
  .inputPortLabel {
    text-anchor: end;
  }
  .splitjoinBody {
    fill:#000;
  }</style>
  <g s:type="and" transform="translate(166.33333333333334,598.5)" s:width="30" s:height="25" id="cell_$and$datapath.v:22$1">
    <s:alias val="$and"/>
    <s:alias val="$logic_and"/>
    <s:alias val="$_AND_"/>
    <path d="M0,0 L0,25 L15,25 A15 12.5 0 0 0 15,0 Z" class="cell_$and$datapath.v:22$1"/>
    <g s:x="0" s:y="5" s:pid="A"/>
    <g s:x="0" s:y="20" s:pid="B"/>
    <g s:x="30" s:y="12.5" s:pid="Y"/>
  </g>
  <g s:type="and" transform="translate(690.3333333333334,552)" s:width="30" s:height="25" id="cell_$and$datapath.v:30$4">
    <s:alias val="$and"/>
    <s:alias val="$logic_and"/>
    <s:alias val="$_AND_"/>
    <path d="M0,0 L0,25 L15,25 A15 12.5 0 0 0 15,0 Z" class="cell_$and$datapath.v:30$4"/>
    <g s:x="0" s:y="5" s:pid="A"/>
    <g s:x="0" s:y="20" s:pid="B"/>
    <g s:x="30" s:y="12.5" s:pid="Y"/>
  </g>
  <g s:type="and" transform="translate(797.6666666666666,149.5)" s:width="30" s:height="25" id="cell_$and$datapath.v:33$9">
    <s:alias val="$and"/>
    <s:alias val="$logic_and"/>
    <s:alias val="$_AND_"/>
    <path d="M0,0 L0,25 L15,25 A15 12.5 0 0 0 15,0 Z" class="cell_$and$datapath.v:33$9"/>
    <g s:x="0" s:y="5" s:pid="A"/>
    <g s:x="0" s:y="20" s:pid="B"/>
    <g s:x="30" s:y="12.5" s:pid="Y"/>
  </g>
  <g s:type="or" transform="translate(324,53.5)" s:width="30" s:height="25" id="cell_$or$datapath.v:33$5">
    <s:alias val="$or"/>
    <s:alias val="$logic_or"/>
    <s:alias val="$_OR_"/>
    <path d="M0,25 L0,25 L15,25 A15 12.5 0 0 0 15,0 L0,0" class="cell_$or$datapath.v:33$5"/>
    <path d="M0,0 A30 25 0 0 1 0,25" class="cell_$or$datapath.v:33$5"/>
    <g s:x="3" s:y="5" s:pid="A"/>
    <g s:x="3" s:y="20" s:pid="B"/>
    <g s:x="30" s:y="12.5" s:pid="Y"/>
  </g>
  <g s:type="or" transform="translate(472.6666666666667,61)" s:width="30" s:height="25" id="cell_$or$datapath.v:33$6">
    <s:alias val="$or"/>
    <s:alias val="$logic_or"/>
    <s:alias val="$_OR_"/>
    <path d="M0,25 L0,25 L15,25 A15 12.5 0 0 0 15,0 L0,0" class="cell_$or$datapath.v:33$6"/>
    <path d="M0,0 A30 25 0 0 1 0,25" class="cell_$or$datapath.v:33$6"/>
    <g s:x="3" s:y="5" s:pid="A"/>
    <g s:x="3" s:y="20" s:pid="B"/>
    <g s:x="30" s:y="12.5" s:pid="Y"/>
  </g>
  <g s:type="or" transform="translate(582,214.5)" s:width="30" s:height="25" id="cell_$or$datapath.v:33$7">
    <s:alias val="$or"/>
    <s:alias val="$logic_or"/>
    <s:alias val="$_OR_"/>
    <path d="M0,25 L0,25 L15,25 A15 12.5 0 0 0 15,0 L0,0" class="cell_$or$datapath.v:33$7"/>
    <path d="M0,0 A30 25 0 0 1 0,25" class="cell_$or$datapath.v:33$7"/>
    <g s:x="3" s:y="5" s:pid="A"/>
    <g s:x="3" s:y="20" s:pid="B"/>
    <g s:x="30" s:y="12.5" s:pid="Y"/>
  </g>
  <g s:type="or" transform="translate(690.3333333333334,222)" s:width="30" s:height="25" id="cell_$or$datapath.v:33$8">
    <s:alias val="$or"/>
    <s:alias val="$logic_or"/>
    <s:alias val="$_OR_"/>
    <path d="M0,25 L0,25 L15,25 A15 12.5 0 0 0 15,0 L0,0" class="cell_$or$datapath.v:33$8"/>
    <path d="M0,0 A30 25 0 0 1 0,25" class="cell_$or$datapath.v:33$8"/>
    <g s:x="3" s:y="5" s:pid="A"/>
    <g s:x="3" s:y="20" s:pid="B"/>
    <g s:x="30" s:y="12.5" s:pid="Y"/>
  </g>
  <g s:type="generic" transform="translate(914,414.5)" s:width="30" s:height="40" id="cell_$procdff$40">
    <text x="15" y="-4" class="nodelabel cell_$procdff$40" s:attribute="ref">$adff</text>
    <rect width="30" height="60" s:generic="body" class="cell_$procdff$40"/>
    <g transform="translate(0,10)" s:x="0" s:y="10" s:pid="in0" id="port_$procdff$40~ARST">
      <text x="-3" y="-4" class="inputPortLabel cell_$procdff$40">ARST</text>
    </g>
    <g transform="translate(0,30)" s:x="0" s:y="10" s:pid="in0" id="port_$procdff$40~CLK">
      <text x="-3" y="-4" class="inputPortLabel cell_$procdff$40">CLK</text>
    </g>
    <g transform="translate(0,50)" s:x="0" s:y="10" s:pid="in0" id="port_$procdff$40~D">
      <text x="-3" y="-4" class="inputPortLabel cell_$procdff$40">D</text>
    </g>
    <g transform="translate(30,10)" s:x="30" s:y="10" s:pid="out0" id="port_$procdff$40~Q">
      <text x="5" y="-4" style="fill:#000; stroke:none" class="cell_$procdff$40">Q</text>
    </g>
  </g>
  <g s:type="generic" transform="translate(469,321.5)" s:width="30" s:height="40" id="cell_$procdff$41">
    <text x="15" y="-4" class="nodelabel cell_$procdff$41" s:attribute="ref">$adff</text>
    <rect width="30" height="60" s:generic="body" class="cell_$procdff$41"/>
    <g transform="translate(0,10)" s:x="0" s:y="10" s:pid="in0" id="port_$procdff$41~ARST">
      <text x="-3" y="-4" class="inputPortLabel cell_$procdff$41">ARST</text>
    </g>
    <g transform="translate(0,30)" s:x="0" s:y="10" s:pid="in0" id="port_$procdff$41~CLK">
      <text x="-3" y="-4" class="inputPortLabel cell_$procdff$41">CLK</text>
    </g>
    <g transform="translate(0,50)" s:x="0" s:y="10" s:pid="in0" id="port_$procdff$41~D">
      <text x="-3" y="-4" class="inputPortLabel cell_$procdff$41">D</text>
    </g>
    <g transform="translate(30,10)" s:x="30" s:y="10" s:pid="out0" id="port_$procdff$41~Q">
      <text x="5" y="-4" style="fill:#000; stroke:none" class="cell_$procdff$41">Q</text>
    </g>
  </g>
  <g s:type="mux" transform="translate(914,250.5)" s:width="20" s:height="40" id="cell_$procmux$36">
    <s:alias val="$pmux"/>
    <s:alias val="$mux"/>
    <s:alias val="$_MUX_"/>
    <path d="M0,0 L20,10 L20,30 L0,40 Z" class="cell_$procmux$36"/>
    <g s:x="0" s:y="10" s:pid="A"/>
    <g s:x="0" s:y="30" s:pid="B"/>
    <g s:x="10" s:y="35" s:pid="S"/>
    <g s:x="20" s:y="20" s:pid="Y"/>
  </g>
  <g s:type="mux" transform="translate(249,503)" s:width="20" s:height="40" id="cell_$procmux$38">
    <s:alias val="$pmux"/>
    <s:alias val="$mux"/>
    <s:alias val="$_MUX_"/>
    <path d="M0,0 L20,10 L20,30 L0,40 Z" class="cell_$procmux$38"/>
    <g s:x="0" s:y="10" s:pid="A"/>
    <g s:x="0" s:y="30" s:pid="B"/>
    <g s:x="10" s:y="35" s:pid="S"/>
    <g s:x="20" s:y="20" s:pid="Y"/>
  </g>
  <g s:type="mux" transform="translate(585.3333333333334,552)" s:width="20" s:height="40" id="cell_$ternary$datapath.v:30$3">
    <s:alias val="$pmux"/>
    <s:alias val="$mux"/>
    <s:alias val="$_MUX_"/>
    <path d="M0,0 L20,10 L20,30 L0,40 Z" class="cell_$ternary$datapath.v:30$3"/>
    <g s:x="0" s:y="10" s:pid="A"/>
    <g s:x="0" s:y="30" s:pid="B"/>
    <g s:x="10" s:y="35" s:pid="S"/>
    <g s:x="20" s:y="20" s:pid="Y"/>
  </g>
  <g s:type="generic" transform="translate(472.6666666666667,571.5)" s:width="30" s:height="40" id="cell_Available">
    <text x="15" y="-4" class="nodelabel cell_Available" s:attribute="ref">mux5_1</text>
    <rect width="30" height="40" s:generic="body" class="cell_Available"/>
    <g transform="translate(0,10)" s:x="0" s:y="10" s:pid="in0" id="port_Available~in">
      <text x="-3" y="-4" class="inputPortLabel cell_Available">in</text>
    </g>
    <g transform="translate(0,30)" s:x="0" s:y="10" s:pid="in0" id="port_Available~sel">
      <text x="-3" y="-4" class="inputPortLabel cell_Available">sel</text>
    </g>
    <g transform="translate(30,10)" s:x="30" s:y="10" s:pid="out0" id="port_Available~out">
      <text x="5" y="-4" style="fill:#000; stroke:none" class="cell_Available">out</text>
    </g>
  </g>
  <g s:type="generic" transform="translate(690,144)" s:width="30" s:height="40" id="cell_outReady">
    <text x="15" y="-4" class="nodelabel cell_outReady" s:attribute="ref">mux5_1</text>
    <rect width="30" height="40" s:generic="body" class="cell_outReady"/>
    <g transform="translate(0,10)" s:x="0" s:y="10" s:pid="in0" id="port_outReady~in">
      <text x="-3" y="-4" class="inputPortLabel cell_outReady">in</text>
    </g>
    <g transform="translate(0,30)" s:x="0" s:y="10" s:pid="in0" id="port_outReady~sel">
      <text x="-3" y="-4" class="inputPortLabel cell_outReady">sel</text>
    </g>
    <g transform="translate(30,10)" s:x="30" s:y="10" s:pid="out0" id="port_outReady~out">
      <text x="5" y="-4" style="fill:#000; stroke:none" class="cell_outReady">out</text>
    </g>
  </g>
  <g s:type="generic" transform="translate(794,554)" s:width="30" s:height="40" id="cell_outRequest">
    <text x="15" y="-4" class="nodelabel cell_outRequest" s:attribute="ref">demux1_5</text>
    <rect width="30" height="40" s:generic="body" class="cell_outRequest"/>
    <g transform="translate(0,10)" s:x="0" s:y="10" s:pid="in0" id="port_outRequest~in">
      <text x="-3" y="-4" class="inputPortLabel cell_outRequest">in</text>
    </g>
    <g transform="translate(0,30)" s:x="0" s:y="10" s:pid="in0" id="port_outRequest~sel">
      <text x="-3" y="-4" class="inputPortLabel cell_outRequest">sel</text>
    </g>
    <g transform="translate(30,10)" s:x="30" s:y="10" s:pid="out0" id="port_outRequest~out">
      <text x="5" y="-4" style="fill:#000; stroke:none" class="cell_outRequest">out</text>
    </g>
  </g>
  <g s:type="inputExt" transform="translate(304,435)" s:width="30" s:height="20" id="cell_clk">
    <text x="15" y="-4" class="nodelabel cell_clk" s:attribute="ref">clk</text>
    <s:alias val="$_inputExt_"/>
    <path d="M0,0 L0,20 L15,20 L30,10 L15,0 Z" class="cell_clk"/>
    <g s:x="28" s:y="10" s:pid="Y"/>
  </g>
  <g s:type="inputExt" transform="translate(304,322)" s:width="30" s:height="20" id="cell_reset">
    <text x="15" y="-4" class="nodelabel cell_reset" s:attribute="ref">reset</text>
    <s:alias val="$_inputExt_"/>
    <path d="M0,0 L0,20 L15,20 L30,10 L15,0 Z" class="cell_reset"/>
    <g s:x="28" s:y="10" s:pid="Y"/>
  </g>
  <g s:type="inputExt" transform="translate(570,679.5)" s:width="30" s:height="20" id="cell_validIn">
    <text x="15" y="-4" class="nodelabel cell_validIn" s:attribute="ref">validIn</text>
    <s:alias val="$_inputExt_"/>
    <path d="M0,0 L0,20 L15,20 L30,10 L15,0 Z" class="cell_validIn"/>
    <g s:x="28" s:y="10" s:pid="Y"/>
  </g>
  <g s:type="inputExt" transform="translate(304,572)" s:width="30" s:height="20" id="cell_outputAvailable">
    <text x="15" y="-4" class="nodelabel cell_outputAvailable" s:attribute="ref">outputAvailable</text>
    <s:alias val="$_inputExt_"/>
    <path d="M0,0 L0,20 L15,20 L30,10 L15,0 Z" class="cell_outputAvailable"/>
    <g s:x="28" s:y="10" s:pid="Y"/>
  </g>
  <g s:type="inputExt" transform="translate(570,144.5)" s:width="30" s:height="20" id="cell_outputReady">
    <text x="15" y="-4" class="nodelabel cell_outputReady" s:attribute="ref">outputReady</text>
    <s:alias val="$_inputExt_"/>
    <path d="M0,0 L0,20 L15,20 L30,10 L15,0 Z" class="cell_outputReady"/>
    <g s:x="28" s:y="10" s:pid="Y"/>
  </g>
  <g s:type="inputExt" transform="translate(148,53.5)" s:width="30" s:height="20" id="cell_outputGrant">
    <text x="15" y="-4" class="nodelabel cell_outputGrant" s:attribute="ref">outputGrant</text>
    <s:alias val="$_inputExt_"/>
    <path d="M0,0 L0,20 L15,20 L30,10 L15,0 Z" class="cell_outputGrant"/>
    <g s:x="28" s:y="10" s:pid="Y"/>
  </g>
  <g s:type="inputExt" transform="translate(12,598.5)" s:width="30" s:height="20" id="cell_dataIn">
    <text x="15" y="-4" class="nodelabel cell_dataIn" s:attribute="ref">dataIn</text>
    <s:alias val="$_inputExt_"/>
    <path d="M0,0 L0,20 L15,20 L30,10 L15,0 Z" class="cell_dataIn"/>
    <g s:x="28" s:y="10" s:pid="Y"/>
  </g>
  <g s:type="outputExt" transform="translate(914,87)" s:width="30" s:height="20" id="cell_dataOut0">
    <text x="15" y="-4" class="nodelabel cell_dataOut0" s:attribute="ref">dataOut0</text>
    <s:alias val="$_outputExt_"/>
    <path d="M30,0 L30,20 L15,20 L0,10 L15,0 Z" class="cell_dataOut0"/>
    <g s:x="0" s:y="10" s:pid="A"/>
  </g>
  <g s:type="outputExt" transform="translate(914,759)" s:width="30" s:height="20" id="cell_dataOut1">
    <text x="15" y="-4" class="nodelabel cell_dataOut1" s:attribute="ref">dataOut1</text>
    <s:alias val="$_outputExt_"/>
    <path d="M30,0 L30,20 L15,20 L0,10 L15,0 Z" class="cell_dataOut1"/>
    <g s:x="0" s:y="10" s:pid="A"/>
  </g>
  <g s:type="outputExt" transform="translate(914,889)" s:width="30" s:height="20" id="cell_dataOut2">
    <text x="15" y="-4" class="nodelabel cell_dataOut2" s:attribute="ref">dataOut2</text>
    <s:alias val="$_outputExt_"/>
    <path d="M30,0 L30,20 L15,20 L0,10 L15,0 Z" class="cell_dataOut2"/>
    <g s:x="0" s:y="10" s:pid="A"/>
  </g>
  <g s:type="outputExt" transform="translate(914,22)" s:width="30" s:height="20" id="cell_dataOut3">
    <text x="15" y="-4" class="nodelabel cell_dataOut3" s:attribute="ref">dataOut3</text>
    <s:alias val="$_outputExt_"/>
    <path d="M30,0 L30,20 L15,20 L0,10 L15,0 Z" class="cell_dataOut3"/>
    <g s:x="0" s:y="10" s:pid="A"/>
  </g>
  <g s:type="outputExt" transform="translate(914,824)" s:width="30" s:height="20" id="cell_dataOut4">
    <text x="15" y="-4" class="nodelabel cell_dataOut4" s:attribute="ref">dataOut4</text>
    <s:alias val="$_outputExt_"/>
    <path d="M30,0 L30,20 L15,20 L0,10 L15,0 Z" class="cell_dataOut4"/>
    <g s:x="0" s:y="10" s:pid="A"/>
  </g>
  <g s:type="outputExt" transform="translate(914,629.5)" s:width="30" s:height="20" id="cell_validOut">
    <text x="15" y="-4" class="nodelabel cell_validOut" s:attribute="ref">validOut</text>
    <s:alias val="$_outputExt_"/>
    <path d="M30,0 L30,20 L15,20 L0,10 L15,0 Z" class="cell_validOut"/>
    <g s:x="0" s:y="10" s:pid="A"/>
  </g>
  <g s:type="outputExt" transform="translate(914,554.5)" s:width="30" s:height="20" id="cell_requestPort">
    <text x="15" y="-4" class="nodelabel cell_requestPort" s:attribute="ref">requestPort</text>
    <s:alias val="$_outputExt_"/>
    <path d="M30,0 L30,20 L15,20 L0,10 L15,0 Z" class="cell_requestPort"/>
    <g s:x="0" s:y="10" s:pid="A"/>
  </g>
  <g s:type="outputExt" transform="translate(914,152)" s:width="30" s:height="20" id="cell_ready">
    <text x="15" y="-4" class="nodelabel cell_ready" s:attribute="ref">ready</text>
    <s:alias val="$_outputExt_"/>
    <path d="M30,0 L30,20 L15,20 L0,10 L15,0 Z" class="cell_ready"/>
    <g s:x="0" s:y="10" s:pid="A"/>
  </g>
  <g s:type="constant" transform="translate(83,533)" s:width="30" s:height="20" id="cell_00">
    <text x="15" y="-4" class="nodelabel cell_00" s:attribute="ref">00</text>
    <s:alias val="$_constant_"/>
    <rect width="30" height="20" class="cell_00"/>
    <g s:x="30" s:y="10" s:pid="Y"/>
  </g>
  <g s:type="join" transform="translate(175,512.5)" s:width="4" s:height="40" id="cell_$join$,31,32,33,63,64,">
    <rect width="5" height="40" class="splitjoinBody" s:generic="body"/>
    <s:alias val="$_join_"/>
    <g s:x="5" s:y="20" s:pid="out"/>
    <g transform="translate(0,10)" s:x="0" s:y="10" s:pid="in0">
      <text x="-3" y="-4" class="inputPortLabel">0:2</text>
    </g>
    <g transform="translate(0,30)" s:x="0" s:y="10" s:pid="in0">
      <text x="-3" y="-4" class="inputPortLabel">3:4</text>
    </g>
  </g>
  <g s:type="join" transform="translate(803.25,619)" s:width="4" s:height="40" id="cell_$join$,4,4,4,4,4,">
    <rect width="5" height="100" class="splitjoinBody" s:generic="body"/>
    <s:alias val="$_join_"/>
    <g s:x="5" s:y="20" s:pid="out"/>
    <g transform="translate(0,10)" s:x="0" s:y="10" s:pid="in0">
      <text x="-3" y="-4" class="inputPortLabel">0</text>
    </g>
    <g transform="translate(0,30)" s:x="0" s:y="10" s:pid="in0">
      <text x="-3" y="-4" class="inputPortLabel">1</text>
    </g>
    <g transform="translate(0,50)" s:x="0" s:y="10" s:pid="in0">
      <text x="-3" y="-4" class="inputPortLabel">2</text>
    </g>
    <g transform="translate(0,70)" s:x="0" s:y="10" s:pid="in0">
      <text x="-3" y="-4" class="inputPortLabel">3</text>
    </g>
    <g transform="translate(0,90)" s:x="0" s:y="10" s:pid="in0">
      <text x="-3" y="-4" class="inputPortLabel">4</text>
    </g>
  </g>
  <g s:type="split" transform="translate(95,588)" s:width="5" s:height="40" id="cell_$split$,20,21,22,23,24,25,26,27,28,29,30,31,32,33,34,35,">
    <rect width="5" height="60" class="splitjoinBody" s:generic="body"/>
    <s:alias val="$_split_"/>
    <g s:x="0" s:y="20" s:pid="in"/>
    <g transform="translate(4,10)" s:x="4" s:y="10" s:pid="out0">
      <text x="5" y="-4">15</text>
    </g>
    <g transform="translate(4,30)" s:x="4" s:y="10" s:pid="out0">
      <text x="5" y="-4">14</text>
    </g>
    <g transform="translate(4,50)" s:x="4" s:y="10" s:pid="out0">
      <text x="5" y="-4">11:13</text>
    </g>
  </g>
  <g s:type="split" transform="translate(256.8,43)" s:width="5" s:height="40" id="cell_$split$,15,16,17,18,19,">
    <rect width="5" height="100" class="splitjoinBody" s:generic="body"/>
    <s:alias val="$_split_"/>
    <g s:x="0" s:y="20" s:pid="in"/>
    <g transform="translate(4,10)" s:x="4" s:y="10" s:pid="out0">
      <text x="5" y="-4">4</text>
    </g>
    <g transform="translate(4,30)" s:x="4" s:y="10" s:pid="out0">
      <text x="5" y="-4">3</text>
    </g>
    <g transform="translate(4,50)" s:x="4" s:y="10" s:pid="out0">
      <text x="5" y="-4">2</text>
    </g>
    <g transform="translate(4,70)" s:x="4" s:y="10" s:pid="out0">
      <text x="5" y="-4">1</text>
    </g>
    <g transform="translate(4,90)" s:x="4" s:y="10" s:pid="out0">
      <text x="5" y="-4">0</text>
    </g>
  </g>
  <g s:type="split" transform="translate(329,490)" s:width="5" s:height="40" id="cell_$split$,50,51,52,53,54,">
    <rect width="5" height="20" class="splitjoinBody" s:generic="body"/>
    <s:alias val="$_split_"/>
    <g s:x="0" s:y="20" s:pid="in"/>
    <g transform="translate(4,10)" s:x="4" s:y="10" s:pid="out0">
      <text x="5" y="-4">0:2</text>
    </g>
  </g>
  <line x1="100" x2="133" y1="598.5" y2="598.5" class="net_35"/>
  <line x1="133" x2="133" y1="598.5" y2="603.5" class="net_35"/>
  <line x1="133" x2="166.33333333333334" y1="603.5" y2="603.5" class="net_35"/>
  <line x1="100" x2="166.33333333333334" y1="618.5" y2="618.5" class="net_34"/>
  <line x1="598" x2="646" y1="689.5" y2="689.5" class="net_4"/>
  <line x1="646" x2="646" y1="689.5" y2="557" class="net_4"/>
  <circle cx="646" cy="689.5" r="2" style="fill:#000" class="net_4"/>
  <line x1="646" x2="690.3333333333334" y1="557" y2="557" class="net_4"/>
  <line x1="598" x2="760" y1="689.5" y2="689.5" class="net_4"/>
  <line x1="760" x2="760" y1="689.5" y2="607" class="net_4"/>
  <line x1="760" x2="803.75" y1="607" y2="607" class="net_4"/>
  <circle cx="760" cy="689.5" r="2" style="fill:#000" class="net_4"/>
  <line x1="803.75" x2="803.75" y1="607" y2="629" class="net_4"/>
  <line x1="598" x2="760" y1="689.5" y2="689.5" class="net_4"/>
  <line x1="760" x2="760" y1="689.5" y2="649.5" class="net_4"/>
  <circle cx="760" cy="649.5" r="2" style="fill:#000" class="net_4"/>
  <line x1="760" x2="803.25" y1="649.5" y2="649.5" class="net_4"/>
  <line x1="598" x2="760" y1="689.5" y2="689.5" class="net_4"/>
  <line x1="760" x2="760" y1="689.5" y2="669.5" class="net_4"/>
  <circle cx="760" cy="669.5" r="2" style="fill:#000" class="net_4"/>
  <line x1="760" x2="803.25" y1="669.5" y2="669.5" class="net_4"/>
  <line x1="598" x2="803.25" y1="689.5" y2="689.5" class="net_4"/>
  <line x1="598" x2="760" y1="689.5" y2="689.5" class="net_4"/>
  <line x1="760" x2="760" y1="689.5" y2="729" class="net_4"/>
  <line x1="760" x2="803.75" y1="729" y2="729" class="net_4"/>
  <line x1="803.75" x2="803.75" y1="729" y2="710" class="net_4"/>
  <line x1="605.3333333333334" x2="690.3333333333334" y1="572" y2="572" class="net_43"/>
  <line x1="721" x2="797.6666666666666" y1="154.5" y2="154.5" class="net_45"/>
  <line x1="720.3333333333334" x2="750" y1="234.5" y2="234.5" class="net_46"/>
  <line x1="750" x2="750" y1="234.5" y2="169.5" class="net_46"/>
  <line x1="750" x2="797.6666666666666" y1="169.5" y2="169.5" class="net_46"/>
  <line x1="261.8" x2="279" y1="53.5" y2="53.5" class="net_19"/>
  <line x1="279" x2="279" y1="53.5" y2="58.5" class="net_19"/>
  <line x1="279" x2="327" y1="58.5" y2="58.5" class="net_19"/>
  <line x1="261.8" x2="327" y1="73.5" y2="73.5" class="net_18"/>
  <line x1="354" x2="475.6666666666667" y1="66" y2="66" class="net_47"/>
  <line x1="261.8" x2="279" y1="93.5" y2="93.5" class="net_17"/>
  <line x1="279" x2="279" y1="93.5" y2="88.5" class="net_17"/>
  <line x1="279" x2="404" y1="88.5" y2="88.5" class="net_17"/>
  <line x1="404" x2="404" y1="88.5" y2="81" class="net_17"/>
  <line x1="404" x2="475.6666666666667" y1="81" y2="81" class="net_17"/>
  <line x1="502.6666666666667" x2="545" y1="73.5" y2="73.5" class="net_48"/>
  <line x1="545" x2="545" y1="73.5" y2="219.5" class="net_48"/>
  <line x1="545" x2="585" y1="219.5" y2="219.5" class="net_48"/>
  <line x1="261.8" x2="279" y1="113.5" y2="113.5" class="net_16"/>
  <line x1="279" x2="279" y1="113.5" y2="234.5" class="net_16"/>
  <line x1="279" x2="585" y1="234.5" y2="234.5" class="net_16"/>
  <line x1="612" x2="693.3333333333334" y1="227" y2="227" class="net_49"/>
  <line x1="261.3" x2="261.3" y1="134" y2="249.5" class="net_15"/>
  <line x1="261.3" x2="646" y1="249.5" y2="249.5" class="net_15"/>
  <line x1="646" x2="646" y1="249.5" y2="242" class="net_15"/>
  <line x1="646" x2="693.3333333333334" y1="242" y2="242" class="net_15"/>
  <line x1="332" x2="424" y1="332" y2="332" class="net_3"/>
  <line x1="424" x2="424" y1="332" y2="425" class="net_3"/>
  <circle cx="424" cy="332" r="2" style="fill:#000" class="net_3"/>
  <line x1="424" x2="914" y1="425" y2="425" class="net_3"/>
  <line x1="332" x2="469" y1="332" y2="332" class="net_3"/>
  <line x1="332" x2="914" y1="445" y2="445" class="net_2"/>
  <line x1="332" x2="414" y1="445" y2="445" class="net_2"/>
  <line x1="414" x2="414" y1="445" y2="352" class="net_2"/>
  <circle cx="414" cy="445" r="2" style="fill:#000" class="net_2"/>
  <line x1="414" x2="469" y1="352" y2="352" class="net_2"/>
  <line x1="269" x2="279" y1="523" y2="523" class="net_50,51,52,53,54"/>
  <line x1="279" x2="279" y1="523" y2="533" class="net_50,51,52,53,54"/>
  <line x1="279" x2="864" y1="533" y2="533" class="net_50,51,52,53,54"/>
  <line x1="864" x2="864" y1="533" y2="465" class="net_50,51,52,53,54"/>
  <circle cx="279" cy="523" r="2" style="fill:#000" class="net_50,51,52,53,54"/>
  <line x1="864" x2="914" y1="465" y2="465" class="net_50,51,52,53,54"/>
  <line x1="269" x2="329.5" y1="523" y2="523" class="net_50,51,52,53,54"/>
  <line x1="329.5" x2="329.5" y1="523" y2="511" class="net_50,51,52,53,54"/>
  <line x1="934" x2="990" y1="270.5" y2="270.5" class="net_60"/>
  <line x1="990" x2="990" y1="270.5" y2="394.5" class="net_60"/>
  <line x1="990" x2="434" y1="394.5" y2="394.5" class="net_60"/>
  <line x1="434" x2="434" y1="394.5" y2="372" class="net_60"/>
  <line x1="434" x2="469" y1="372" y2="372" class="net_60"/>
  <line x1="500" x2="545" y1="332" y2="332" class="net_61"/>
  <line x1="545" x2="545" y1="332" y2="260.5" class="net_61"/>
  <circle cx="545" cy="332" r="2" style="fill:#000" class="net_61"/>
  <line x1="545" x2="914" y1="260.5" y2="260.5" class="net_61"/>
  <line x1="500" x2="545" y1="332" y2="332" class="net_61"/>
  <line x1="545" x2="545" y1="332" y2="562" class="net_61"/>
  <line x1="545" x2="585.3333333333334" y1="562" y2="562" class="net_61"/>
  <line x1="827.6666666666666" x2="864" y1="162" y2="162" class="net_41"/>
  <line x1="864" x2="864" y1="162" y2="280.5" class="net_41"/>
  <circle cx="864" cy="162" r="2" style="fill:#000" class="net_41"/>
  <line x1="864" x2="914" y1="280.5" y2="280.5" class="net_41"/>
  <line x1="827.6666666666666" x2="914" y1="162" y2="162" class="net_41"/>
  <line x1="196.33333333333334" x2="234" y1="611" y2="611" class="net_42"/>
  <line x1="234" x2="234" y1="611" y2="300.5" class="net_42"/>
  <line x1="234" x2="924" y1="300.5" y2="300.5" class="net_42"/>
  <circle cx="234" cy="611" r="2" style="fill:#000" class="net_42"/>
  <line x1="924" x2="924" y1="300.5" y2="285.5" class="net_42"/>
  <line x1="196.33333333333334" x2="259" y1="611" y2="611" class="net_42"/>
  <line x1="259" x2="259" y1="611" y2="538" class="net_42"/>
  <line x1="196.33333333333334" x2="234" y1="611" y2="611" class="net_42"/>
  <line x1="234" x2="234" y1="611" y2="624.5" class="net_42"/>
  <line x1="234" x2="595.3333333333334" y1="624.5" y2="624.5" class="net_42"/>
  <line x1="595.3333333333334" x2="595.3333333333334" y1="624.5" y2="587" class="net_42"/>
  <line x1="945" x2="990" y1="425" y2="425" class="net_55,56,57,58,59"/>
  <line x1="990" x2="990" y1="425" y2="739" class="net_55,56,57,58,59"/>
  <line x1="990" x2="224" y1="739" y2="739" class="net_55,56,57,58,59"/>
  <line x1="224" x2="224" y1="739" y2="513" class="net_55,56,57,58,59"/>
  <line x1="224" x2="249" y1="513" y2="513" class="net_55,56,57,58,59"/>
  <line x1="181" x2="249" y1="533" y2="533" class="net_31,32,33,63,64"/>
  <line x1="503.6666666666667" x2="585.3333333333334" y1="582" y2="582" class="net_62"/>
  <line x1="332" x2="472.6666666666667" y1="582" y2="582" class="net_5,6,7,8,9"/>
  <line x1="334" x2="404" y1="500.5" y2="500.5" class="net_50,51,52"/>
  <line x1="404" x2="404" y1="500.5" y2="602" class="net_50,51,52"/>
  <circle cx="404" cy="500.5" r="2" style="fill:#000" class="net_50,51,52"/>
  <circle cx="404" cy="602" r="2" style="fill:#000" class="net_50,51,52"/>
  <line x1="404" x2="472.6666666666667" y1="602" y2="602" class="net_50,51,52"/>
  <line x1="334" x2="404" y1="500.5" y2="500.5" class="net_50,51,52"/>
  <line x1="404" x2="404" y1="500.5" y2="174.5" class="net_50,51,52"/>
  <line x1="404" x2="690" y1="174.5" y2="174.5" class="net_50,51,52"/>
  <line x1="334" x2="404" y1="500.5" y2="500.5" class="net_50,51,52"/>
  <line x1="404" x2="404" y1="500.5" y2="635.5" class="net_50,51,52"/>
  <line x1="404" x2="750" y1="635.5" y2="635.5" class="net_50,51,52"/>
  <line x1="750" x2="750" y1="635.5" y2="584.5" class="net_50,51,52"/>
  <line x1="750" x2="794" y1="584.5" y2="584.5" class="net_50,51,52"/>
  <line x1="598" x2="690" y1="154.5" y2="154.5" class="net_10,11,12,13,14"/>
  <line x1="720.3333333333334" x2="794" y1="564.5" y2="564.5" class="net_44"/>
  <line x1="40" x2="58" y1="608.5" y2="608.5" class="net_20,21,22,23,24,25,26,27,28,29,30,31,32,33,34,35"/>
  <line x1="58" x2="58" y1="608.5" y2="32" class="net_20,21,22,23,24,25,26,27,28,29,30,31,32,33,34,35"/>
  <line x1="58" x2="864" y1="32" y2="32" class="net_20,21,22,23,24,25,26,27,28,29,30,31,32,33,34,35"/>
  <line x1="864" x2="864" y1="32" y2="97" class="net_20,21,22,23,24,25,26,27,28,29,30,31,32,33,34,35"/>
  <circle cx="58" cy="608.5" r="2" style="fill:#000" class="net_20,21,22,23,24,25,26,27,28,29,30,31,32,33,34,35"/>
  <circle cx="864" cy="32" r="2" style="fill:#000" class="net_20,21,22,23,24,25,26,27,28,29,30,31,32,33,34,35"/>
  <line x1="864" x2="914" y1="97" y2="97" class="net_20,21,22,23,24,25,26,27,28,29,30,31,32,33,34,35"/>
  <line x1="40" x2="58" y1="608.5" y2="608.5" class="net_20,21,22,23,24,25,26,27,28,29,30,31,32,33,34,35"/>
  <line x1="58" x2="58" y1="608.5" y2="834" class="net_20,21,22,23,24,25,26,27,28,29,30,31,32,33,34,35"/>
  <line x1="58" x2="864" y1="834" y2="834" class="net_20,21,22,23,24,25,26,27,28,29,30,31,32,33,34,35"/>
  <line x1="864" x2="864" y1="834" y2="769" class="net_20,21,22,23,24,25,26,27,28,29,30,31,32,33,34,35"/>
  <circle cx="864" cy="834" r="2" style="fill:#000" class="net_20,21,22,23,24,25,26,27,28,29,30,31,32,33,34,35"/>
  <line x1="864" x2="914" y1="769" y2="769" class="net_20,21,22,23,24,25,26,27,28,29,30,31,32,33,34,35"/>
  <line x1="40" x2="58" y1="608.5" y2="608.5" class="net_20,21,22,23,24,25,26,27,28,29,30,31,32,33,34,35"/>
  <line x1="58" x2="58" y1="608.5" y2="834" class="net_20,21,22,23,24,25,26,27,28,29,30,31,32,33,34,35"/>
  <line x1="58" x2="864" y1="834" y2="834" class="net_20,21,22,23,24,25,26,27,28,29,30,31,32,33,34,35"/>
  <line x1="864" x2="864" y1="834" y2="899" class="net_20,21,22,23,24,25,26,27,28,29,30,31,32,33,34,35"/>
  <line x1="864" x2="914" y1="899" y2="899" class="net_20,21,22,23,24,25,26,27,28,29,30,31,32,33,34,35"/>
  <line x1="40" x2="58" y1="608.5" y2="608.5" class="net_20,21,22,23,24,25,26,27,28,29,30,31,32,33,34,35"/>
  <line x1="58" x2="58" y1="608.5" y2="32" class="net_20,21,22,23,24,25,26,27,28,29,30,31,32,33,34,35"/>
  <line x1="58" x2="914" y1="32" y2="32" class="net_20,21,22,23,24,25,26,27,28,29,30,31,32,33,34,35"/>
  <line x1="40" x2="58" y1="608.5" y2="608.5" class="net_20,21,22,23,24,25,26,27,28,29,30,31,32,33,34,35"/>
  <line x1="58" x2="58" y1="608.5" y2="834" class="net_20,21,22,23,24,25,26,27,28,29,30,31,32,33,34,35"/>
  <line x1="58" x2="914" y1="834" y2="834" class="net_20,21,22,23,24,25,26,27,28,29,30,31,32,33,34,35"/>
  <line x1="40" x2="95" y1="608.5" y2="608.5" class="net_20,21,22,23,24,25,26,27,28,29,30,31,32,33,34,35"/>
  <line x1="809.25" x2="914" y1="639.5" y2="639.5" class="net_4,4,4,4,4"/>
  <line x1="825" x2="914" y1="564.5" y2="564.5" class="net_36,37,38,39,40"/>
  <line x1="100" x2="123" y1="638.5" y2="638.5" class="net_31,32,33"/>
  <line x1="123" x2="123" y1="638.5" y2="523" class="net_31,32,33"/>
  <line x1="123" x2="175" y1="523" y2="523" class="net_31,32,33"/>
  <line x1="113" x2="175" y1="543" y2="543" class="net_63,64"/>
  <line x1="176" x2="256.8" y1="63.5" y2="63.5" class="net_15,16,17,18,19"/>
</svg>
